<svg width="20" height="20" viewBox="0 0 20 20" fill="none" xmlns="http://www.w3.org/2000/svg">
<path d="M1.60756 4.66944C1.45655 4.28373 1.02145 4.09348 0.635745 4.24449C0.250041 4.39551 0.0597867 4.8306 0.2108 5.21631L1.60756 4.66944ZM13.2612 11.2406L12.9644 10.5518L13.2612 11.2406ZM7.38371 11.6238C7.59536 11.2678 7.47829 10.8075 7.12224 10.5959C6.76618 10.3842 6.30596 10.5013 6.09431 10.8574L7.38371 11.6238ZM4.80994 13.018C4.59828 13.3741 4.71535 13.8343 5.0714 14.046C5.42746 14.2576 5.88768 14.1405 6.09933 13.7845L4.80994 13.018ZM19.7894 5.21631C19.9404 4.8306 19.7501 4.39551 19.3644 4.24449C18.9787 4.09348 18.5436 4.28373 18.3926 4.66944L19.7894 5.21631ZM16.3637 9.0515L15.8263 8.52839V8.52839L16.3637 9.0515ZM17.1736 11.05C17.453 11.3558 17.9274 11.3773 18.2332 11.0979C18.539 10.8185 18.5605 10.3441 18.2811 10.0383L17.1736 11.05ZM9.25009 14.3964C9.25009 14.8106 9.58587 15.1464 10.0001 15.1464C10.4143 15.1464 10.7501 14.8106 10.7501 14.3964H9.25009ZM13.9008 13.7845C14.1125 14.1405 14.5727 14.2576 14.9288 14.046C15.2848 13.8343 15.4019 13.3741 15.1902 13.018L13.9008 13.7845ZM4.19017 9.55735C4.46955 9.25154 4.44812 8.77715 4.14231 8.49777C3.8365 8.2184 3.36211 8.23983 3.08273 8.54564L4.19017 9.55735ZM1.7191 10.0383C1.43972 10.3441 1.46115 10.8185 1.76696 11.0979C2.07277 11.3773 2.54716 11.3558 2.82654 11.05L1.7191 10.0383ZM10.0001 11.1586C7.12136 11.1586 5.03904 9.58953 3.6402 7.94056C2.94304 7.11874 2.43111 6.29358 2.09363 5.67297C1.92535 5.36351 1.80166 5.10715 1.721 4.93056C1.68069 4.84233 1.65121 4.7742 1.63236 4.72951C1.62293 4.70718 1.61617 4.69072 1.61204 4.68056C1.60998 4.67549 1.60858 4.67198 1.60783 4.67011C1.60746 4.66917 1.60725 4.66865 1.6072 4.66853C1.60718 4.66847 1.6072 4.66852 1.60726 4.66867C1.60729 4.66875 1.60736 4.66894 1.60738 4.66898C1.60746 4.66919 1.60756 4.66944 0.90918 4.94287C0.2108 5.21631 0.210917 5.2166 0.211044 5.21693C0.2111 5.21707 0.211238 5.21742 0.211351 5.21771C0.211576 5.21828 0.211845 5.21896 0.212155 5.21975C0.212777 5.22132 0.213568 5.22332 0.21453 5.22573C0.216453 5.23055 0.219059 5.23704 0.22235 5.24514C0.228933 5.26135 0.238261 5.284 0.250365 5.31269C0.274567 5.37004 0.309898 5.45156 0.356597 5.5538C0.44994 5.75814 0.589035 6.04599 0.775865 6.38956C1.14862 7.07503 1.71623 7.9913 2.49634 8.91091C4.05205 10.7448 6.51518 12.6586 10.0001 12.6586V11.1586ZM12.9644 10.5518C12.0945 10.9266 11.1102 11.1586 10.0001 11.1586V12.6586C11.3263 12.6586 12.5118 12.3801 13.5579 11.9294L12.9644 10.5518ZM6.09431 10.8574L4.80994 13.018L6.09933 13.7845L7.38371 11.6238L6.09431 10.8574ZM19.091 4.94287C18.3926 4.66944 18.3927 4.66929 18.3927 4.66916C18.3927 4.66913 18.3928 4.669 18.3928 4.66893C18.3929 4.66879 18.3929 4.66869 18.3929 4.66862C18.393 4.66848 18.393 4.66847 18.393 4.66859C18.3929 4.66883 18.3926 4.66959 18.392 4.67086C18.391 4.67339 18.3892 4.67797 18.3865 4.6845C18.3812 4.69758 18.3725 4.71849 18.3605 4.74666C18.3365 4.803 18.2992 4.88826 18.2482 4.99771C18.1461 5.2168 17.9899 5.53174 17.7774 5.90512C17.3508 6.6545 16.7052 7.62536 15.8263 8.52839L16.9012 9.57461C17.8937 8.55487 18.6118 7.47142 19.0809 6.64718C19.3163 6.23374 19.491 5.88205 19.6079 5.6312C19.6663 5.50568 19.7105 5.40515 19.7406 5.33444C19.7556 5.29908 19.7672 5.27116 19.7753 5.25127C19.7794 5.24133 19.7826 5.23339 19.7849 5.22754C19.7861 5.22462 19.787 5.22221 19.7878 5.22033C19.7882 5.2194 19.7885 5.21859 19.7887 5.21792C19.7889 5.21758 19.789 5.21728 19.7891 5.21701C19.7892 5.21688 19.7892 5.2167 19.7892 5.21663C19.7893 5.21647 19.7894 5.21631 19.091 4.94287ZM15.8263 8.52839C15.0473 9.32871 14.0965 10.064 12.9644 10.5518L13.5579 11.9294C14.9121 11.3459 16.0205 10.4795 16.9012 9.57461L15.8263 8.52839ZM15.81 9.55736L17.1736 11.05L18.2811 10.0383L16.9174 8.54564L15.81 9.55736ZM9.25009 11.9086V14.3964H10.7501V11.9086H9.25009ZM12.6165 11.6238L13.9008 13.7845L15.1902 13.018L13.9059 10.8574L12.6165 11.6238ZM3.08273 8.54564L1.7191 10.0383L2.82654 11.05L4.19017 9.55735L3.08273 8.54564Z" fill="#033240"/>
</svg>
