<svg width="207" height="45" viewBox="0 0 207 45" fill="none" xmlns="http://www.w3.org/2000/svg">
<path d="M0.25 35V0.0909081H9.72727V14.2045H10.2045L20.7045 0.0909081H31.75L19.9545 15.6364L32.0227 35H20.7045L12.8636 21.9091L9.72727 26V35H0.25ZM41.9943 35.4091C40.3239 35.4091 38.8466 35.1364 37.5625 34.5909C36.2898 34.0341 35.2898 33.1932 34.5625 32.0682C33.8352 30.9432 33.4716 29.5114 33.4716 27.7727C33.4716 26.3409 33.7159 25.1193 34.2045 24.108C34.6932 23.0852 35.375 22.25 36.25 21.6023C37.125 20.9545 38.142 20.4602 39.3011 20.1193C40.4716 19.7784 41.733 19.5568 43.0852 19.4545C44.5511 19.3409 45.7273 19.2045 46.6136 19.0455C47.5114 18.875 48.1591 18.642 48.5568 18.3466C48.9545 18.0398 49.1534 17.6364 49.1534 17.1364V17.0682C49.1534 16.3864 48.892 15.8636 48.3693 15.5C47.8466 15.1364 47.1761 14.9545 46.358 14.9545C45.4602 14.9545 44.7273 15.1534 44.1591 15.5511C43.6023 15.9375 43.267 16.5341 43.1534 17.3409H34.4943C34.608 15.75 35.1136 14.2841 36.0114 12.9432C36.9205 11.5909 38.2443 10.5114 39.983 9.70455C41.7216 8.88636 43.892 8.47727 46.4943 8.47727C48.3693 8.47727 50.0511 8.69886 51.5398 9.14205C53.0284 9.57386 54.2955 10.1818 55.3409 10.9659C56.3864 11.7386 57.1818 12.6477 57.7273 13.6932C58.2841 14.7273 58.5625 15.8523 58.5625 17.0682V35H49.767V31.3182H49.5625C49.0398 32.2955 48.4034 33.0852 47.6534 33.6875C46.9148 34.2898 46.0682 34.7273 45.1136 35C44.1705 35.2727 43.1307 35.4091 41.9943 35.4091ZM45.0625 29.4773C45.7784 29.4773 46.4489 29.3295 47.0739 29.0341C47.7102 28.7386 48.2273 28.3125 48.625 27.7557C49.0227 27.1989 49.2216 26.5227 49.2216 25.7273V23.5455C48.9716 23.6477 48.7045 23.7443 48.4205 23.8352C48.1477 23.9261 47.8523 24.0114 47.5341 24.0909C47.2273 24.1705 46.8977 24.2443 46.5455 24.3125C46.2045 24.3807 45.8466 24.4432 45.4716 24.5C44.7443 24.6136 44.1477 24.8011 43.6818 25.0625C43.2273 25.3125 42.8864 25.625 42.6591 26C42.4432 26.3636 42.3352 26.7727 42.3352 27.2273C42.3352 27.9545 42.5909 28.5114 43.1023 28.8977C43.6136 29.2841 44.267 29.4773 45.0625 29.4773ZM72.5355 35.3409C70.6719 35.3409 68.956 34.8523 67.3878 33.875C65.831 32.8977 64.581 31.4148 63.6378 29.4261C62.706 27.4375 62.2401 24.9318 62.2401 21.9091C62.2401 18.75 62.7287 16.1818 63.706 14.2045C64.6946 12.2273 65.9673 10.7784 67.5241 9.85795C69.0923 8.9375 70.7401 8.47727 72.4673 8.47727C73.7628 8.47727 74.8991 8.70455 75.8764 9.15909C76.8537 9.60227 77.6719 10.1989 78.331 10.9489C78.9901 11.6875 79.4901 12.5 79.831 13.3864H79.9673V0.0909081H89.3764V35H80.0355V30.7045H79.831C79.4673 31.5909 78.9446 32.3864 78.2628 33.0909C77.5923 33.7841 76.7741 34.3352 75.8082 34.7443C74.8537 35.142 73.7628 35.3409 72.5355 35.3409ZM76.0128 28.1136C76.8764 28.1136 77.6151 27.8636 78.2287 27.3636C78.8537 26.8523 79.331 26.1364 79.6605 25.2159C80.0014 24.2841 80.1719 23.1818 80.1719 21.9091C80.1719 20.6136 80.0014 19.5057 79.6605 18.5852C79.331 17.6534 78.8537 16.9432 78.2287 16.4545C77.6151 15.9545 76.8764 15.7045 76.0128 15.7045C75.1491 15.7045 74.4105 15.9545 73.7969 16.4545C73.1946 16.9432 72.7287 17.6534 72.3991 18.5852C72.081 19.5057 71.9219 20.6136 71.9219 21.9091C71.9219 23.2045 72.081 24.3182 72.3991 25.25C72.7287 26.1705 73.1946 26.8807 73.7969 27.3807C74.4105 27.8693 75.1491 28.1136 76.0128 28.1136ZM101.291 35.4091C99.6207 35.4091 98.1435 35.1364 96.8594 34.5909C95.5866 34.0341 94.5866 33.1932 93.8594 32.0682C93.1321 30.9432 92.7685 29.5114 92.7685 27.7727C92.7685 26.3409 93.0128 25.1193 93.5014 24.108C93.9901 23.0852 94.6719 22.25 95.5469 21.6023C96.4219 20.9545 97.4389 20.4602 98.598 20.1193C99.7685 19.7784 101.03 19.5568 102.382 19.4545C103.848 19.3409 105.024 19.2045 105.911 19.0455C106.808 18.875 107.456 18.642 107.854 18.3466C108.251 18.0398 108.45 17.6364 108.45 17.1364V17.0682C108.45 16.3864 108.189 15.8636 107.666 15.5C107.143 15.1364 106.473 14.9545 105.655 14.9545C104.757 14.9545 104.024 15.1534 103.456 15.5511C102.899 15.9375 102.564 16.5341 102.45 17.3409H93.7912C93.9048 15.75 94.4105 14.2841 95.3082 12.9432C96.2173 11.5909 97.5412 10.5114 99.2798 9.70455C101.018 8.88636 103.189 8.47727 105.791 8.47727C107.666 8.47727 109.348 8.69886 110.837 9.14205C112.325 9.57386 113.592 10.1818 114.638 10.9659C115.683 11.7386 116.479 12.6477 117.024 13.6932C117.581 14.7273 117.859 15.8523 117.859 17.0682V35H109.064V31.3182H108.859C108.337 32.2955 107.7 33.0852 106.95 33.6875C106.212 34.2898 105.365 34.7273 104.411 35C103.467 35.2727 102.428 35.4091 101.291 35.4091ZM104.359 29.4773C105.075 29.4773 105.746 29.3295 106.371 29.0341C107.007 28.7386 107.524 28.3125 107.922 27.7557C108.32 27.1989 108.518 26.5227 108.518 25.7273V23.5455C108.268 23.6477 108.001 23.7443 107.717 23.8352C107.445 23.9261 107.149 24.0114 106.831 24.0909C106.524 24.1705 106.195 24.2443 105.842 24.3125C105.501 24.3807 105.143 24.4432 104.768 24.5C104.041 24.6136 103.445 24.8011 102.979 25.0625C102.524 25.3125 102.183 25.625 101.956 26C101.74 26.3636 101.632 26.7727 101.632 27.2273C101.632 27.9545 101.888 28.5114 102.399 28.8977C102.911 29.2841 103.564 29.4773 104.359 29.4773ZM122.219 35V0.0909081H137.287C139.878 0.0909081 142.145 0.602272 144.088 1.625C146.031 2.64773 147.543 4.08523 148.622 5.9375C149.702 7.78977 150.241 9.95454 150.241 12.4318C150.241 14.9318 149.685 17.0966 148.571 18.9261C147.469 20.7557 145.918 22.1648 143.918 23.1534C141.929 24.142 139.605 24.6364 136.946 24.6364H127.946V17.2727H135.037C136.151 17.2727 137.099 17.0795 137.884 16.6932C138.679 16.2955 139.287 15.733 139.707 15.0057C140.139 14.2784 140.355 13.4205 140.355 12.4318C140.355 11.4318 140.139 10.5795 139.707 9.875C139.287 9.15909 138.679 8.61364 137.884 8.23864C137.099 7.85227 136.151 7.65909 135.037 7.65909H131.696V35H122.219ZM159.979 35.4091C158.308 35.4091 156.831 35.1364 155.547 34.5909C154.274 34.0341 153.274 33.1932 152.547 32.0682C151.82 30.9432 151.456 29.5114 151.456 27.7727C151.456 26.3409 151.7 25.1193 152.189 24.108C152.678 23.0852 153.359 22.25 154.234 21.6023C155.109 20.9545 156.126 20.4602 157.286 20.1193C158.456 19.7784 159.717 19.5568 161.07 19.4545C162.536 19.3409 163.712 19.2045 164.598 19.0455C165.496 18.875 166.143 18.642 166.541 18.3466C166.939 18.0398 167.138 17.6364 167.138 17.1364V17.0682C167.138 16.3864 166.876 15.8636 166.354 15.5C165.831 15.1364 165.161 14.9545 164.342 14.9545C163.445 14.9545 162.712 15.1534 162.143 15.5511C161.587 15.9375 161.251 16.5341 161.138 17.3409H152.479C152.592 15.75 153.098 14.2841 153.996 12.9432C154.905 11.5909 156.229 10.5114 157.967 9.70455C159.706 8.88636 161.876 8.47727 164.479 8.47727C166.354 8.47727 168.036 8.69886 169.524 9.14205C171.013 9.57386 172.28 10.1818 173.325 10.9659C174.371 11.7386 175.166 12.6477 175.712 13.6932C176.268 14.7273 176.547 15.8523 176.547 17.0682V35H167.751V31.3182H167.547C167.024 32.2955 166.388 33.0852 165.638 33.6875C164.899 34.2898 164.053 34.7273 163.098 35C162.155 35.2727 161.115 35.4091 159.979 35.4091ZM163.047 29.4773C163.763 29.4773 164.433 29.3295 165.058 29.0341C165.695 28.7386 166.212 28.3125 166.609 27.7557C167.007 27.1989 167.206 26.5227 167.206 25.7273V23.5455C166.956 23.6477 166.689 23.7443 166.405 23.8352C166.132 23.9261 165.837 24.0114 165.518 24.0909C165.212 24.1705 164.882 24.2443 164.53 24.3125C164.189 24.3807 163.831 24.4432 163.456 24.5C162.729 24.6136 162.132 24.8011 161.666 25.0625C161.212 25.3125 160.871 25.625 160.643 26C160.428 26.3636 160.32 26.7727 160.32 27.2273C160.32 27.9545 160.575 28.5114 161.087 28.8977C161.598 29.2841 162.251 29.4773 163.047 29.4773ZM185.832 44.8182C184.753 44.8182 183.724 44.733 182.747 44.5625C181.77 44.4034 180.912 44.1818 180.173 43.8977L182.219 37.2159C182.991 37.4886 183.696 37.6648 184.332 37.7443C184.98 37.8239 185.531 37.7784 185.986 37.608C186.452 37.4375 186.787 37.1136 186.991 36.6364L187.196 36.1591L177.991 8.81818H187.81L192.037 26.9545H192.31L196.605 8.81818H206.491L196.946 37.1818C196.469 38.625 195.776 39.9205 194.866 41.0682C193.969 42.2273 192.787 43.142 191.321 43.8125C189.855 44.483 188.026 44.8182 185.832 44.8182Z" fill="white"/>
</svg>
