<svg width="363" height="363" viewBox="0 0 363 363" fill="none" xmlns="http://www.w3.org/2000/svg">
<path d="M133.738 0H114.629V19.0925H133.738H152.843V0H133.738Z" fill="black"/>
<path d="M248.367 0H229.262V19.0925H248.367V0Z" fill="black"/>
<path d="M210.158 19.0925H191.053V0H171.948V19.0925H152.844V38.185V57.2775H133.739V76.37H152.844V95.4625H171.948H191.053V76.37H171.948V57.2775V38.185H191.053H210.158H229.263V19.0925H210.158Z" fill="black"/>
<path d="M248.367 57.278V38.1855H229.262V57.278V76.3706H248.367V57.278Z" fill="black"/>
<path d="M114.629 95.4621V114.555H133.738V95.4621V76.3696H114.629V95.4621Z" fill="black"/>
<path d="M229.262 76.3696H210.157V95.4621H229.262V76.3696Z" fill="black"/>
<path d="M152.844 210.018H133.739V229.11H152.844V210.018Z" fill="black"/>
<path d="M19.1049 114.555H0V133.647H19.1049V114.555Z" fill="black"/>
<path d="M210.158 133.648H229.263V152.741H248.367V133.648H267.472V114.556H248.367V95.4631H229.263V114.556H210.158H191.053H171.948H152.843V133.648H171.948H191.053V152.741H210.158V133.648Z" fill="black"/>
<path d="M343.892 133.647V114.555H324.787V133.647V152.74H343.892V133.647Z" fill="black"/>
<path d="M19.1049 152.74H0V171.833H19.1049V152.74Z" fill="black"/>
<path d="M95.5243 171.832H114.629V152.74H133.738V133.647H114.629H95.5243V114.555H76.4194V133.647V152.74H95.5243V171.832Z" fill="black"/>
<path d="M191.052 152.74H171.947V171.833H191.052V152.74Z" fill="black"/>
<path d="M305.682 152.74V133.647V114.555H286.577V133.647V152.74H267.472H248.367V171.832H267.472H286.577V190.925H305.682V171.832H324.787V152.74H305.682Z" fill="black"/>
<path d="M95.5239 171.832H76.4191V152.74H57.3142V133.647V114.555H38.2093V133.647H19.1045V152.74H38.2093V171.832H57.3142V190.925H76.4191V210.017H95.5239V190.925V171.832Z" fill="black"/>
<path d="M133.739 190.925H152.844V210.018H171.948V190.925V171.833H152.844V152.74H133.739V171.833V190.925Z" fill="black"/>
<path d="M343.892 171.833H324.787V190.925V210.018H305.682V229.11H324.787V248.203H343.892V267.295V286.388H362.997V267.295V248.203V229.11H343.892V210.018H362.997V190.925H343.892V171.833Z" fill="black"/>
<path d="M19.1049 190.926H0V210.018V229.111H19.1049V248.203H38.2097V229.111V210.018H19.1049V190.926Z" fill="black"/>
<path d="M57.3151 190.926H38.2102V210.018H57.3151V190.926Z" fill="black"/>
<path d="M248.368 190.925V171.833H229.263H210.158H191.053V190.925V210.018H210.158V190.925H229.263V210.018H248.368V229.11H267.473V210.018H286.578V190.925H267.473H248.368Z" fill="black"/>
<path d="M76.4196 210.018H57.3147V229.11H76.4196V210.018Z" fill="black"/>
<path d="M114.63 210.018H95.5249V229.11V248.203H114.63V267.295V286.388H133.738V267.295V248.203V229.11H114.63V210.018Z" fill="black"/>
<path d="M191.052 210.018H171.947V229.11H191.052V210.018Z" fill="black"/>
<path d="M171.948 229.11H152.843V248.202H171.948V229.11Z" fill="black"/>
<path d="M229.263 267.295V248.202V229.11H210.158V248.202H191.053V267.295H210.158H229.263Z" fill="black"/>
<path d="M171.948 267.295H152.843V286.387H171.948V267.295Z" fill="black"/>
<path d="M210.158 286.387H191.053V305.48H210.158V286.387Z" fill="black"/>
<path d="M306.043 286.388V229.091H229.244V305.84H248.371V324.577H267.476V305.84H286.581V324.577H305.686V305.84H306.043V305.484H324.791V324.577H343.896H363V305.484H343.896V286.388H324.791H306.043ZM243.951 243.789H291.715V291.522H243.951V243.789Z" fill="black"/>
<path d="M133.739 324.572V343.669H152.844V324.572V305.48V286.387H133.739V305.48V324.572Z" fill="black"/>
<path d="M210.157 324.572V343.669H229.262H248.367V324.572H229.262H210.157Z" fill="black"/>
<path d="M133.734 343.67H114.629V362.762H133.734V343.67Z" fill="black"/>
<path d="M171.948 362.762H191.053V343.67H171.948H152.843V362.762H171.948Z" fill="black"/>
<path d="M324.787 343.67V362.762H343.892H362.996V343.67H343.892H324.787Z" fill="black"/>
<path d="M277.383 258.107H258.279V277.199H277.383V258.107Z" fill="black"/>
<path d="M95.5243 0H0V95.4625H95.5243V0ZM81.1967 81.1403H14.3277V14.3184H81.1967V81.1403Z" fill="black"/>
<path d="M66.8687 28.637H28.6589V66.822H66.8687V28.637Z" fill="black"/>
<path d="M267.472 0V95.4625H362.996V0H267.472ZM348.669 81.1403H281.8V14.3184H348.669V81.1403Z" fill="black"/>
<path d="M334.341 28.637H296.131V66.822H334.341V28.637Z" fill="black"/>
<path d="M0 363H95.5243V267.534H0V363ZM14.3277 281.856H81.1967V348.682H14.3277V281.856Z" fill="black"/>
<path d="M66.8687 296.174H28.6589V334.359H66.8687V296.174Z" fill="black"/>
</svg>
